<svg xmlns="http://www.w3.org/2000/svg" width="922.288" height="92.593"><path d="M881.17 36.542c0-1.225.395-2.239 1.21-3.096l.074-.08c.58-.628 1.437-.946 2.547-.946h21.603c4.166 0 8.097-1.64 11.072-4.615l.113-.117c2.9-3.021 4.499-6.952 4.499-11.068 0-4.104-1.682-8.14-4.612-11.07-2.975-2.975-6.906-4.614-11.072-4.614h-21.429c-9.391 0-18.28 3.715-25.027 10.462-6.748 6.748-10.462 15.677-10.462 25.144 0 9.443 3.775 18.204 10.597 24.638M72.675 35.631v21.444c0 1.396.35 2.635.937 3.314l.058.067c.145.173.53.63 1.853.63 1.227 0 2.24-.398 3.1-1.212l.08-.075c.628-.58.947-1.439.947-2.55V35.63c0-4.168 1.64-8.103 4.617-11.08l.116-.115c3.024-2.902 6.958-4.5 11.078-4.5 4.107 0 8.146 1.683 11.077 4.614 2.98 2.978 4.62 6.913 4.62 11.081v21.444c0 9.399-3.718 18.295-10.472 25.048-6.751 6.75-15.689 10.47-25.163 10.47-9.45 0-18.216-3.78-24.657-10.607-6.255-6.558-9.7-15.405-9.7-24.91V35.63c0-4.242 1.599-8.177 4.501-11.08 2.976-2.976 6.911-4.616 11.079-4.616 4.154 0 8.207 1.661 11.137 4.559 3.047 2.955 4.792 7.009 4.792 11.137" fill="#00b25a"/><path d="M41.149 35.634c0-1.225-.397-2.24-1.212-3.099l-.073-.079c-.582-.629-1.439-.947-2.55-.947H15.695c-4.169 0-8.104-1.64-11.08-4.619l-.114-.116C1.6 23.75 0 19.816 0 15.696 0 11.59 1.682 7.551 4.615 4.62 7.591 1.64 11.526 0 15.695 0h21.444c9.4 0 18.295 3.719 25.049 10.471 6.75 6.751 10.47 15.689 10.47 25.163 0 9.45-3.78 18.217-10.607 24.657" fill="#00b25a"/><path d="M139.9 11.542c6.256 6.556 9.701 15.403 9.701 24.911v21.443c0 4.244-1.599 8.177-4.501 11.081-2.978 2.978-6.913 4.616-11.08 4.616-4.153 0-8.208-1.661-11.136-4.558-3.047-2.955-4.792-7.01-4.792-11.14V36.454c0-1.396-.35-2.636-.936-3.313l-.057-.067c-.145-.172-.533-.63-1.857-.63-1.225 0-2.238.397-3.097 1.212l-.08.075c-.629.58-.946 1.437-.946 2.55v21.616c0 4.167-1.64 8.104-4.618 11.081l-.117.115c-3.025 2.903-6.96 4.501-11.078 4.501-4.106 0-8.145-1.682-11.08-4.616C81.25 66 79.61 62.063 79.61 57.896V36.453c0-9.398 3.719-18.295 10.47-25.046C96.832 4.655 105.769.936 115.242.936c9.45 0 18.22 3.777 24.658 10.606" fill="#ffc519"/><path d="M21.802 22.27a3.927 3.927 0 1 0-7.853-.001 3.927 3.927 0 0 0 7.853.001M21.802 8.48a3.927 3.927 0 1 0-7.854.001 3.927 3.927 0 0 0 7.854-.001" fill="#fff"/><path d="M149.616 35.631v21.444c0 1.396.351 2.635.938 3.314l.057.067c.145.173.531.63 1.854.63 1.226 0 2.24-.398 3.099-1.212l.08-.075c.628-.58.947-1.439.947-2.55V35.63c0-4.168 1.64-8.103 4.618-11.08l.116-.115c3.025-2.902 6.959-4.5 11.077-4.5 4.108 0 8.147 1.683 11.078 4.614 2.979 2.978 4.619 6.913 4.619 11.081v21.444c0 9.399-3.718 18.295-10.47 25.048-6.753 6.75-15.69 10.47-25.164 10.47-9.449 0-18.216-3.78-24.656-10.607-6.257-6.558-9.702-15.405-9.702-24.91V35.63c0-4.242 1.6-8.177 4.502-11.08 2.977-2.976 6.91-4.616 11.078-4.616 4.154 0 8.21 1.661 11.138 4.559 3.046 2.955 4.791 7.009 4.791 11.137" fill="#f3703a"/><path d="M216.896 11.542c6.255 6.556 9.7 15.403 9.7 24.911v21.443c0 4.244-1.598 8.177-4.5 11.081-2.977 2.978-6.912 4.616-11.08 4.616-4.152 0-8.207-1.661-11.137-4.558-3.045-2.955-4.79-7.01-4.79-11.14V36.454c0-1.396-.351-2.636-.938-3.313l-.056-.067c-.145-.172-.532-.63-1.856-.63-1.225 0-2.239.397-3.098 1.212l-.08.075c-.628.58-.946 1.437-.946 2.55v21.616c0 4.167-1.64 8.104-4.617 11.081l-.118.115c-3.025 2.903-6.959 4.501-11.079 4.501-4.106 0-8.145-1.682-11.078-4.616-2.978-2.977-4.618-6.914-4.618-11.081V36.453c0-9.398 3.719-18.295 10.471-25.046C173.828 4.655 182.766.936 192.24.936c9.45 0 18.217 3.777 24.657 10.606" fill="#e11d43"/><path d="M226.613 35.631v21.444c0 1.396.35 2.635.937 3.314l.058.067c.145.173.53.63 1.853.63 1.227 0 2.24-.398 3.1-1.212l.08-.075c.628-.58.945-1.439.945-2.55V35.63c0-4.168 1.642-8.103 4.62-11.08l.115-.115c3.024-2.902 6.958-4.5 11.078-4.5 4.107 0 8.145 1.683 11.077 4.614 2.98 2.978 4.62 6.913 4.62 11.081v21.444c0 9.399-3.718 18.295-10.472 25.048-6.751 6.75-15.689 10.47-25.163 10.47-9.45 0-18.216-3.78-24.657-10.607-6.255-6.558-9.701-15.405-9.701-24.91V35.63c0-4.242 1.6-8.177 4.502-11.08 2.976-2.976 6.911-4.616 11.079-4.616 4.154 0 8.207 1.661 11.137 4.559 3.045 2.955 4.792 7.009 4.792 11.137" fill="#5b57a6"/><path d="M293.892 11.542c6.256 6.556 9.701 15.403 9.701 24.911v21.443c0 4.244-1.6 8.177-4.5 11.081-2.978 2.978-6.913 4.616-11.08 4.616-4.153 0-8.208-1.661-11.138-4.558-3.045-2.955-4.79-7.01-4.79-11.14V36.454c0-1.396-.351-2.636-.938-3.313l-.056-.067c-.145-.172-.532-.63-1.856-.63-1.225 0-2.239.397-3.098 1.212l-.081.075c-.627.58-.945 1.437-.945 2.55v21.616c0 4.167-1.64 8.104-4.617 11.081l-.118.115c-3.025 2.903-6.959 4.501-11.079 4.501-4.106 0-8.144-1.682-11.079-4.616-2.977-2.977-4.617-6.914-4.617-11.081V36.453c0-9.398 3.719-18.295 10.471-25.046C250.823 4.655 259.761.936 269.235.936c9.45 0 18.217 3.777 24.657 10.606" fill="#00b25a"/><path d="M303.608 35.631v21.444c0 1.396.35 2.635.938 3.314l.057.067c.145.173.532.63 1.854.63 1.226 0 2.24-.398 3.099-1.212l.08-.075c.629-.58.947-1.439.947-2.55V35.63c0-4.168 1.64-8.103 4.618-11.08l.116-.115c3.024-2.902 6.958-4.5 11.078-4.5 4.107 0 8.146 1.683 11.077 4.614 2.979 2.978 4.619 6.913 4.619 11.081v21.444c0 9.399-3.718 18.295-10.471 25.048-6.752 6.75-15.69 10.47-25.163 10.47-9.45 0-18.216-3.78-24.657-10.607-6.255-6.558-9.7-15.405-9.7-24.91V35.63c0-4.242 1.598-8.177 4.5-11.08 2.977-2.976 6.912-4.616 11.08-4.616 4.153 0 8.207 1.661 11.137 4.559 3.046 2.955 4.791 7.009 4.791 11.137" fill="#ffc519"/><path d="M370.888 11.542c6.256 6.556 9.701 15.403 9.701 24.911v21.443c0 4.244-1.6 8.177-4.5 11.081-2.978 2.978-6.913 4.616-11.08 4.616-4.153 0-8.208-1.661-11.138-4.558-3.045-2.955-4.79-7.01-4.79-11.14V36.454c0-1.396-.352-2.636-.938-3.313l-.056-.067c-.145-.172-.533-.63-1.856-.63-1.225 0-2.24.397-3.098 1.212l-.08.075c-.629.58-.946 1.437-.946 2.55v21.616c0 4.167-1.64 8.104-4.618 11.081l-.117.115c-3.025 2.903-6.959 4.501-11.078 4.501-4.106 0-8.145-1.682-11.08-4.616-2.977-2.977-4.616-6.914-4.616-11.081V36.453c0-9.398 3.718-18.295 10.47-25.046C327.82 4.655 336.757.936 346.231.936c9.45 0 18.218 3.777 24.657 10.606" fill="#f3703a"/><path d="M380.604 35.631v21.444c0 1.396.351 2.635.938 3.314l.057.067c.145.173.531.63 1.854.63 1.226 0 2.24-.398 3.099-1.212l.08-.075c.628-.58.947-1.439.947-2.55V35.63c0-4.168 1.64-8.103 4.618-11.08l.116-.115c3.024-2.902 6.959-4.5 11.077-4.5 4.108 0 8.147 1.683 11.078 4.614 2.979 2.978 4.619 6.913 4.619 11.081v21.444c0 9.399-3.718 18.295-10.47 25.048-6.753 6.75-15.689 10.47-25.164 10.47-9.45 0-18.216-3.78-24.656-10.607-6.257-6.558-9.702-15.405-9.702-24.91V35.63c0-4.242 1.6-8.177 4.502-11.08 2.976-2.976 6.911-4.616 11.078-4.616 4.154 0 8.21 1.661 11.138 4.559 3.046 2.955 4.791 7.009 4.791 11.137" fill="#e11d43"/><path d="M447.884 11.542c6.256 6.556 9.701 15.403 9.701 24.911v21.443c0 4.244-1.6 8.177-4.501 11.081-2.978 2.978-6.913 4.616-11.08 4.616-4.153 0-8.208-1.661-11.136-4.558-3.047-2.955-4.792-7.01-4.792-11.14V36.454c0-1.396-.35-2.636-.936-3.313l-.057-.067c-.145-.172-.533-.63-1.857-.63-1.225 0-2.238.397-3.097 1.212l-.08.075c-.629.58-.946 1.437-.946 2.55v21.616c0 4.167-1.64 8.104-4.618 11.081l-.117.115c-3.025 2.903-6.96 4.501-11.078 4.501-4.106 0-8.145-1.682-11.08-4.616-2.977-2.977-4.616-6.914-4.616-11.081V36.453c0-9.398 3.719-18.295 10.47-25.046C404.816 4.655 413.753.936 423.226.936c9.45 0 18.22 3.777 24.658 10.606" fill="#5b57a6"/><path d="M457.6 35.631v21.444c0 1.396.35 2.635.937 3.314l.059.067c.145.173.531.63 1.853.63 1.227 0 2.24-.398 3.1-1.212l.078-.075c.629-.58.947-1.439.947-2.55V35.63c0-4.168 1.642-8.103 4.618-11.08l.117-.115c3.024-2.902 6.958-4.5 11.078-4.5 4.107 0 8.145 1.683 11.077 4.614 2.98 2.978 4.62 6.913 4.62 11.081v21.444c0 9.399-3.718 18.295-10.472 25.048-6.751 6.75-15.689 10.47-25.163 10.47-9.45 0-18.217-3.78-24.657-10.607-6.255-6.558-9.701-15.405-9.701-24.91V35.63c0-4.242 1.598-8.177 4.501-11.08 2.977-2.976 6.912-4.616 11.08-4.616 4.152 0 8.207 1.661 11.137 4.559 3.047 2.955 4.792 7.009 4.792 11.137" fill="#00b25a"/><path d="M524.88 11.542c6.256 6.556 9.701 15.403 9.701 24.911v21.443c0 4.244-1.6 8.177-4.501 11.081-2.978 2.978-6.912 4.616-11.079 4.616-4.153 0-8.209-1.661-11.138-4.558-3.046-2.955-4.79-7.01-4.79-11.14V36.454c0-1.396-.352-2.636-.937-3.313l-.056-.067c-.147-.172-.534-.63-1.858-.63-1.225 0-2.239.397-3.097 1.212l-.082.075c-.627.58-.945 1.437-.945 2.55v21.616c0 4.167-1.64 8.104-4.617 11.081l-.116.115c-3.025 2.903-6.96 4.501-11.079 4.501-4.108 0-8.145-1.682-11.08-4.616-2.978-2.977-4.616-6.914-4.616-11.081V36.453c0-9.398 3.717-18.295 10.471-25.046C481.812 4.655 490.748.936 500.222.936c9.45 0 18.219 3.777 24.658 10.606" fill="#ffc519"/><path d="M534.597 35.631v21.444c0 1.396.35 2.635.936 3.314l.059.067c.145.173.53.63 1.853.63 1.227 0 2.24-.398 3.1-1.212l.078-.075c.629-.58.947-1.439.947-2.55V35.63c0-4.168 1.642-8.103 4.62-11.08l.115-.115c3.024-2.902 6.96-4.5 11.078-4.5 4.107 0 8.145 1.683 11.077 4.614 2.98 2.978 4.62 6.913 4.62 11.081v21.444c0 9.399-3.718 18.295-10.472 25.048-6.751 6.75-15.689 10.47-25.163 10.47-9.45 0-18.217-3.78-24.657-10.607-6.255-6.558-9.7-15.405-9.7-24.91V35.63c0-4.242 1.597-8.177 4.501-11.08 2.976-2.976 6.911-4.616 11.079-4.616 4.152 0 8.207 1.661 11.137 4.559 3.047 2.955 4.792 7.009 4.792 11.137" fill="#f3703a"/><path d="M601.876 11.542c6.256 6.556 9.7 15.403 9.7 24.911v21.443c0 4.244-1.598 8.177-4.5 11.081-2.978 2.978-6.912 4.616-11.08 4.616-4.152 0-8.208-1.661-11.137-4.558-3.046-2.955-4.79-7.01-4.79-11.14V36.454c0-1.396-.352-2.636-.937-3.313l-.056-.067c-.147-.172-.534-.63-1.858-.63-1.225 0-2.239.397-3.097 1.212l-.08.075c-.63.58-.947 1.437-.947 2.55v21.616c0 4.167-1.64 8.104-4.617 11.081l-.116.115c-3.025 2.903-6.96 4.501-11.08 4.501-4.105 0-8.144-1.682-11.08-4.616-2.977-2.977-4.615-6.914-4.615-11.081V36.453c0-9.398 3.718-18.295 10.47-25.046C558.809 4.655 567.745.936 577.219.936c9.45 0 18.219 3.777 24.658 10.606" fill="#e11d43"/><path d="M611.592 35.631v21.444c0 1.396.35 2.635.938 3.314l.057.067c.145.173.532.63 1.854.63 1.226 0 2.24-.398 3.099-1.212l.079-.075c.628-.58.947-1.439.947-2.55V35.63c0-4.168 1.641-8.103 4.619-11.08l.116-.115c3.024-2.902 6.959-4.5 11.078-4.5 4.107 0 8.145 1.683 11.077 4.614 2.979 2.978 4.619 6.913 4.619 11.081v21.444c0 9.399-3.718 18.295-10.471 25.048-6.752 6.75-15.69 10.47-25.163 10.47-9.449 0-18.217-3.78-24.656-10.607-6.256-6.558-9.701-15.405-9.701-24.91V35.63c0-4.242 1.597-8.177 4.5-11.08 2.977-2.976 6.912-4.616 11.08-4.616 4.152 0 8.207 1.661 11.137 4.559 3.046 2.955 4.791 7.009 4.791 11.137" fill="#5b57a6"/><path d="M678.873 11.542c6.255 6.556 9.7 15.403 9.7 24.911v21.443c0 4.244-1.599 8.177-4.501 11.081-2.978 2.978-6.912 4.616-11.08 4.616-4.152 0-8.207-1.661-11.137-4.558-3.046-2.955-4.79-7.01-4.79-11.14V36.454c0-1.396-.351-2.636-.937-3.313l-.057-.067c-.145-.172-.533-.63-1.857-.63-1.224 0-2.239.397-3.096 1.212l-.082.075c-.627.58-.946 1.437-.946 2.55v21.616c0 4.167-1.64 8.104-4.617 11.081l-.116.115c-3.025 2.903-6.96 4.501-11.08 4.501-4.105 0-8.144-1.682-11.078-4.616-2.979-2.977-4.617-6.914-4.617-11.081V36.453c0-9.398 3.718-18.295 10.47-25.046C635.805 4.655 644.74.936 654.215.936c9.451 0 18.219 3.777 24.659 10.606" fill="#00b25a"/><path d="M688.588 35.631v21.444c0 1.396.35 2.635.938 3.314l.057.067c.145.173.531.63 1.854.63 1.226 0 2.24-.398 3.099-1.212l.08-.075c.628-.58.946-1.439.946-2.55V35.63c0-4.168 1.641-8.103 4.619-11.08l.116-.115c3.024-2.902 6.959-4.5 11.077-4.5 4.108 0 8.145 1.683 11.08 4.614 2.977 2.978 4.617 6.913 4.617 11.081v21.444c0 9.399-3.718 18.295-10.472 25.048-6.75 6.75-15.688 10.47-25.162 10.47-9.449 0-18.216-3.78-24.656-10.607-6.257-6.558-9.702-15.405-9.702-24.91V35.63c0-4.242 1.6-8.177 4.502-11.08 2.976-2.976 6.911-4.616 11.078-4.616 4.154 0 8.208 1.661 11.138 4.559 3.046 2.955 4.791 7.009 4.791 11.137" fill="#ffc519"/><path d="M755.868 11.542c6.255 6.556 9.702 15.403 9.702 24.911v21.443c0 4.244-1.6 8.177-4.503 11.081-2.977 2.978-6.911 4.616-11.079 4.616-4.152 0-8.207-1.661-11.137-4.558-3.046-2.955-4.79-7.01-4.79-11.14V36.454c0-1.396-.351-2.636-.938-3.313l-.056-.067c-.145-.172-.532-.63-1.857-.63-1.224 0-2.239.397-3.097 1.212l-.08.075c-.628.58-.946 1.437-.946 2.55v21.616c0 4.167-1.641 8.104-4.619 11.081l-.116.115c-3.025 2.903-6.959 4.501-11.079 4.501-4.106 0-8.143-1.682-11.078-4.616-2.978-2.977-4.618-6.914-4.618-11.081V36.453c0-9.398 3.719-18.295 10.471-25.046C712.8 4.655 721.736.936 731.21.936c9.451 0 18.218 3.777 24.658 10.606" fill="#f3703a"/><path d="M765.584 35.631v21.444c0 1.396.35 2.635.938 3.314l.057.067c.145.173.533.63 1.854.63 1.226 0 2.24-.398 3.099-1.212l.08-.075c.628-.58.946-1.439.946-2.55V35.63c0-4.168 1.641-8.103 4.619-11.08l.116-.115c3.024-2.902 6.959-4.5 11.077-4.5 4.108 0 8.147 1.683 11.08 4.614 2.977 2.978 4.617 6.913 4.617 11.081v21.444c0 9.399-3.718 18.295-10.472 25.048-6.75 6.75-15.688 10.47-25.162 10.47-9.449 0-18.216-3.78-24.656-10.607-6.255-6.558-9.702-15.405-9.702-24.91V35.63c0-4.242 1.6-8.177 4.502-11.08 2.976-2.976 6.91-4.616 11.078-4.616 4.154 0 8.208 1.661 11.138 4.559 3.046 2.955 4.791 7.009 4.791 11.137" fill="#e11d43"/><path d="M832.864 11.542c6.257 6.556 9.702 15.403 9.702 24.911v21.443c0 4.244-1.6 8.177-4.502 11.081-2.978 2.978-6.912 4.616-11.08 4.616-4.152 0-8.207-1.661-11.137-4.558-3.045-2.955-4.79-7.01-4.79-11.14V36.454c0-1.396-.351-2.636-.938-3.313l-.056-.067c-.145-.172-.532-.63-1.857-.63-1.224 0-2.24.397-3.097 1.212l-.08.075c-.628.58-.946 1.437-.946 2.55v21.616c0 4.167-1.64 8.104-4.619 11.081l-.116.115c-3.025 2.903-6.959 4.501-11.079 4.501-4.106 0-8.143-1.682-11.078-4.616-2.978-2.977-4.617-6.914-4.617-11.081V36.453c0-9.398 3.718-18.295 10.47-25.046C789.796 4.655 798.732.936 808.206.936c9.45 0 18.22 3.777 24.658 10.606" fill="#5b57a6"/><path d="M842.58 35.631v21.444c0 1.396.35 2.635.937 3.314l.058.067c.145.173.532.63 1.854.63 1.227 0 2.24-.398 3.1-1.212l.078-.075c.63-.58.948-1.439.948-2.55V35.63c0-4.168 1.64-8.103 4.617-11.08l.117-.115c3.023-2.902 6.958-4.5 11.077-4.5 4.108 0 8.146 1.683 11.079 4.614 2.977 2.978 4.617 6.913 4.617 11.081v21.444c0 9.399-3.717 18.295-10.47 25.048-6.752 6.75-15.69 10.47-25.163 10.47-9.449 0-18.217-3.78-24.657-10.607-6.255-6.558-9.7-15.405-9.7-24.91V35.63c0-4.242 1.598-8.177 4.5-11.08 2.977-2.976 6.912-4.616 11.08-4.616 4.153 0 8.208 1.661 11.137 4.559 3.046 2.955 4.791 7.009 4.791 11.137" fill="#00b25a"/></svg>