<svg xmlns="http://www.w3.org/2000/svg" viewBox="0 0 234.44 195.93"><path d="M227.16 117.49c0-.55-.01-1.09-.04-1.63-.05-4.15-.11-14.55-.11-40.01 0-38.86-31.51-70.37-70.37-70.37s-70.37 31.5-70.37 70.36c0 15.99 2.42 40.74.57 47.79-.95 2.38-2.88 4.46-5.08 4.62-2.45.18-42.35-.03-45.69 0-16.9.53-30.45 13.99-30.45 31.02s13.54 30.89 30.45 31.42v.03s.12 0 .51-.01c.16 0 .32.01.49.01.55 0 1.09-.01 1.63-.04 4.15-.05 14.55-.11 40.01-.11 38.86 0 70.37-31.51 70.37-70.37 0-2.56-.24-43.79.38-47.41.52-3.07 4.28-5.69 7.6-5.69 3.33 0 7.39 2.59 7.62 5.7.18 2.45-.03 42.35 0 45.69.53 16.9 13.99 30.45 31.02 30.45s30.89-13.54 31.42-30.45h.03s0-.12-.01-.51c.01-.17.02-.33.02-.49z" fill="#d70034"/></svg>