<?xml version="1.0" encoding="utf-8"?>
<!-- Generator: Adobe Illustrator 23.0.1, SVG Export Plug-In . SVG Version: 6.00 Build 0)  -->
<svg version="1.1" xmlns="http://www.w3.org/2000/svg" xmlns:xlink="http://www.w3.org/1999/xlink" x="0px" y="0px"
	 viewBox="0 0 155.85 154.14" style="enable-background:new 0 0 155.85 154.14;" xml:space="preserve">
<style type="text/css">
	.st0{display:none;}
	.st1{fill:#D70034;}
</style>
<g id="Layer_2" class="st0">
</g>
<g id="Layer_1">
	<path class="st1" d="M148.55,117.98c0-0.16,0.01-0.32,0.01-0.49c0-0.55-0.01-1.09-0.04-1.63c-0.05-4.15-0.11-14.55-0.11-40.01
		c0-38.86-31.5-70.37-70.37-70.37S7.68,36.98,7.68,75.84c0,21.46,0,42.65,0,42.65s0.02,0,0.02,0c0.4,16.88,14.2,30.45,31.18,30.45
		s30.78-13.56,31.18-30.45c0.01,0,0.01,0,0.02,0c0,0,0-40.95,0.81-45.7c0.52-3.07,4.28-5.69,7.6-5.69c3.33,0,7.39,2.59,7.62,5.7
		c0.18,2.45-0.03,42.35,0,45.69c0.53,16.9,13.99,30.45,31.02,30.45c17.03,0,30.89-13.54,31.42-30.45c0.01,0,0.02,0,0.03,0
		C148.57,118.49,148.56,118.37,148.55,117.98z"/>
</g>
</svg>
