<svg xmlns="http://www.w3.org/2000/svg" viewBox="0 0 229.42 190.87">
  <g id="Layer_1">
    <g id="g252" transform="translate(118.501 1418.643)">
      <path id="path254" class="snek-body" d="M-39.08-1345.34c0-8.52 3.6-16.89 9.89-22.99 6.05-5.98 14.41-9.41 22.99-9.41 8.6 0 16.72 3.38 22.87 9.53 5.99 5.99 9.29 14.11 9.29 22.87v44.26c0 19.62-7.11 37.88-20.02 51.42-13.29 14.09-31.39 21.89-50.89 21.89-19.55 0-38-7.68-51.93-21.61-13.94-13.94-21.61-32.3-21.61-51.7v-44.26c0-8.6 3.38-16.73 9.53-22.87 6.05-6.05 14.39-9.53 22.86-9.53 8.5 0 16.62 3.3 22.86 9.29l.24.23c6.15 6.15 9.53 14.27 9.53 22.87v44.62c0 2.29.66 4.07 1.96 5.26l.17.15c1.77 1.68 3.86 2.5 6.4 2.5 2.73 0 3.53-.94 3.83-1.3l.12-.14c1.21-1.4 1.93-3.96 1.93-6.84v-44.24"/>
    </g>
    <g id="g256" transform="translate(93.28 1418.641)">
      <path id="path258" class="snek-body" d="M8.07-1294.44c-14.09-13.29-21.89-31.39-21.89-50.89 0-19.55 7.68-38 21.61-51.93 13.94-13.94 32.3-21.61 51.7-21.61h44.26c8.6 0 16.73 3.39 22.87 9.53 6.05 6.05 9.53 14.39 9.53 22.86 0 8.5-3.3 16.62-9.29 22.86l-.23.24c-6.14 6.15-14.26 9.53-22.87 9.53H59.13c-2.29 0-4.06.66-5.26 1.96l-.15.16c-1.68 1.77-2.5 3.87-2.5 6.4"/>
    </g>
  </g>
</svg>
