<svg xmlns="http://www.w3.org/2000/svg" viewBox="0 0 144.23 149.73">
  <style></style>
  <g id="Layer_1">
    <g id="g280" transform="translate(241.652 1418.643)">
      <path id="path282" class="snek-body" d="M-176.72-1386.3v44.19c0 2.88.72 5.43 1.93 6.83l.12.14c.3.36 1.09 1.3 3.82 1.3 2.53 0 4.62-.82 6.39-2.5l.16-.15c1.3-1.2 1.95-2.96 1.95-5.25v-44.55c0-8.59 3.38-16.7 9.52-22.84l.24-.23c6.23-5.98 14.34-9.28 22.83-9.28 8.46 0 16.78 3.47 22.83 9.51 6.14 6.14 9.52 14.24 9.52 22.84v44.19c0 19.37-7.66 37.7-21.58 51.62-13.91 13.91-32.33 21.58-51.85 21.58-19.47 0-37.54-7.79-50.81-21.86-12.89-13.52-19.99-31.75-19.99-51.34v-44.19c0-8.74 3.3-16.85 9.28-22.83 6.13-6.13 14.24-9.51 22.83-9.51 8.56 0 16.91 3.42 22.95 9.39 6.26 6.08 9.86 14.43 9.86 22.94"/>
    </g>
  </g>
</svg>
