<svg xmlns="http://www.w3.org/2000/svg" viewBox="0 0 229.42 190.87">
  <g id="Layer_1">
    <g id="g252_1_" transform="translate(118.501 1418.643)">
      <path id="path254_1_" class="snek-body" d="M31.49-1345.34v44.26c0 2.88.72 5.44 1.93 6.84l.12.14c.3.36 1.1 1.3 3.83 1.3 2.53 0 4.62-.82 6.4-2.5l.17-.15c1.3-1.2 1.96-2.97 1.96-5.26v-44.62c0-8.6 3.38-16.73 9.53-22.87l.24-.23c6.24-5.99 14.36-9.29 22.86-9.29 8.48 0 16.81 3.48 22.86 9.53 6.15 6.15 9.53 14.27 9.53 22.87v44.26c0 19.4-7.67 37.76-21.61 51.7-13.93 13.93-32.38 21.61-51.93 21.61-19.5 0-37.6-7.8-50.89-21.89-12.91-13.54-20.02-31.79-20.02-51.42v-44.26c0-8.76 3.3-16.88 9.29-22.87 6.14-6.14 14.26-9.53 22.87-9.53 8.57 0 16.94 3.43 22.99 9.41 6.27 6.09 9.87 14.45 9.87 22.97"/>
    </g>
    <g id="g256_1_" transform="translate(93.28 1418.641)">
      <path id="path258_1_" class="snek-body" d="M-8.35-1345.33c0-2.53-.82-4.62-2.5-6.4l-.15-.16c-1.2-1.3-2.97-1.96-5.26-1.96h-44.62c-8.6 0-16.73-3.38-22.87-9.53l-.23-.24c-5.99-6.24-9.29-14.36-9.29-22.86 0-8.47 3.47-16.81 9.53-22.86 6.14-6.15 14.26-9.53 22.87-9.53h44.26c19.4 0 37.76 7.68 51.7 21.61 13.93 13.93 21.61 32.38 21.61 51.93 0 19.5-7.8 37.6-21.89 50.89"/>
    </g>
  </g>
</svg>
